HIERARCHY
ROOT Hips
{
	OFFSET -6.585965 91.663933 257.982513
	CHANNELS 6 Xposition Yposition Zposition Zrotation Yrotation Xrotation 
	JOINT LeftUpLeg
	{
		OFFSET 0.103457 1.857831 10.548505
		CHANNELS 3 Zrotation Yrotation Xrotation
		JOINT LeftLeg
		{
			OFFSET 43.500000 -0.000038 -0.000004
			CHANNELS 3 Zrotation Yrotation Xrotation
			JOINT LeftFoot
			{
				OFFSET 42.372208 0.000027 -0.000004
				CHANNELS 3 Zrotation Yrotation Xrotation
				JOINT LeftToe
				{
					OFFSET 17.300005 0.000002 0.000002
					CHANNELS 3 Zrotation Yrotation Xrotation
					End Site
					{
						OFFSET 0.000000 0.000000 0.000000
					}
				}
			}
		}
	}
	JOINT RightUpLeg
	{
		OFFSET 0.103462 1.857825 -10.548504
		CHANNELS 3 Zrotation Yrotation Xrotation
		JOINT RightLeg
		{
			OFFSET 43.500042 -0.000027 0.000011
			CHANNELS 3 Zrotation Yrotation Xrotation
			JOINT RightFoot
			{
				OFFSET 42.372265 -0.000015 0.000012
				CHANNELS 3 Zrotation Yrotation Xrotation
				JOINT RightToe
				{
					OFFSET 17.299988 -0.000007 0.000010
					CHANNELS 3 Zrotation Yrotation Xrotation
					End Site
					{
						OFFSET 0.000000 0.000000 0.000000
					}
				}
			}
		}
	}
	JOINT Spine
	{
		OFFSET 6.901970 -2.603737 0.000000
		CHANNELS 3 Zrotation Yrotation Xrotation
		JOINT Spine1
		{
			OFFSET 12.588099 0.000007 0.000001
			CHANNELS 3 Zrotation Yrotation Xrotation
			JOINT Spine2
			{
				OFFSET 12.343201 0.000001 0.000000
				CHANNELS 3 Zrotation Yrotation Xrotation
				JOINT Neck
				{
					OFFSET 25.832897 -0.000008 -0.000001
					CHANNELS 3 Zrotation Yrotation Xrotation
					JOINT Head
					{
						OFFSET 11.766607 0.000021 0.000000
						CHANNELS 3 Zrotation Yrotation Xrotation
						End Site
						{
							OFFSET 0.000000 0.000000 0.000000
						}
					}
				}
				JOINT LeftShoulder
				{
					OFFSET 19.745903 -1.480373 6.000104
					CHANNELS 3 Zrotation Yrotation Xrotation
					JOINT LeftArm
					{
						OFFSET 11.284125 -0.000018 -0.000023
						CHANNELS 3 Zrotation Yrotation Xrotation
						JOINT LeftForeArm
						{
							OFFSET 33.000050 0.000010 0.000034
							CHANNELS 3 Zrotation Yrotation Xrotation
							JOINT LeftHand
							{
								OFFSET 25.200010 0.000001 -0.000001
								CHANNELS 3 Zrotation Yrotation Xrotation
								End Site
								{
									OFFSET 0.000000 0.000000 0.000000
								}
							}
						}
					}
				}
				JOINT RightShoulder
				{
					OFFSET 19.746090 -1.480381 -6.000076
					CHANNELS 3 Zrotation Yrotation Xrotation
					JOINT RightArm
					{
						OFFSET 11.284138 -0.000019 -0.000020
						CHANNELS 3 Zrotation Yrotation Xrotation
						JOINT RightForeArm
						{
							OFFSET 33.000092 0.000024 0.000022
							CHANNELS 3 Zrotation Yrotation Xrotation
							JOINT RightHand
							{
								OFFSET 25.199774 0.000133 0.000423
								CHANNELS 3 Zrotation Yrotation Xrotation
								End Site
								{
									OFFSET 0.000000 0.000000 0.000000
								}
							}
						}
					}
				}
			}
		}
	}
}
MOTION
Frames: 14
Frame Time: 0.033333
-6.585965 91.663933 257.982513 88.834649 6.717841 90.286761 -175.728760 -7.617705 170.556066 -17.236633 -2.500112 -3.925173 85.480132 1.713813 -5.694073 21.454553 0.003101 0.000001 -177.722670 3.315003 174.844783 -17.800892 3.895829 11.834729 83.253449 -7.042695 6.709507 21.454557 -0.003104 -0.000017 7.040328 0.471114 -0.170076 4.066641 0.944254 -0.316865 3.748503 0.942457 -0.322580 -1.517033 -3.869703 -2.676894 -5.615668 4.982456 -5.051082 -92.320184 -83.481878 -89.989559 -7.247760 4.874096 -3.409676 -16.186462 -15.995480 1.099027 13.664269 2.184528 -8.981837 87.715092 85.978879 -90.963346 4.062298 -14.922309 7.616120 -22.143598 21.561311 -1.551752 13.537651 0.714567 -8.661978 
-6.591923 91.663841 257.971191 88.834636 6.717838 90.292662 -175.739538 -7.623804 170.559823 -17.243024 -2.499165 -3.922485 85.480145 1.711077 -5.698367 21.454553 0.003094 0.000001 -177.729076 3.308692 174.847939 -17.802480 3.895832 11.837064 83.250867 -7.045283 6.703959 21.454558 -0.003096 -0.000016 7.042353 0.471120 -0.170078 4.070695 0.947694 -0.316860 3.752551 0.945897 -0.322581 -1.526756 -3.886124 -2.676898 -5.609838 4.996480 -5.057666 -92.336897 -83.489698 -89.971930 -7.250202 4.874095 -3.419382 -16.197710 -16.003534 1.099010 13.664269 2.193487 -8.973607 87.635248 85.984534 -91.042351 4.059973 -14.927950 7.612009 -22.142881 21.561307 -1.551753 13.534520 0.698965 -8.655428 
-6.625701 91.663597 257.903687 88.834649 6.717839 90.323863 -175.802895 -7.655700 170.573415 -17.279494 -2.491068 -3.904028 85.472434 1.692853 -5.723874 21.454550 0.003089 -0.000000 -177.770085 3.275891 174.864782 -17.814202 3.895831 11.849162 83.235875 -7.059605 6.670543 21.454558 -0.003111 -0.000015 7.053912 0.477889 -0.170086 4.093765 0.961385 -0.323342 3.775624 0.959555 -0.329136 -1.577913 -3.906440 -2.679435 -5.581054 5.030385 -5.074590 -92.317493 -83.532701 -89.987476 -7.265316 4.874096 -3.454369 -16.256472 -16.030924 1.099021 13.664272 2.240139 -8.955775 87.475940 86.011001 -91.198626 4.047019 -14.955080 7.582952 -22.125102 21.561309 -1.551754 13.514330 0.605687 -8.603101 
-6.659479 91.663116 257.834015 88.834642 6.717839 90.352789 -175.868984 -7.686592 170.562705 -17.318807 -2.476992 -3.872779 85.464470 1.665956 -5.747475 21.454550 0.003084 -0.000002 -177.815902 3.244601 174.882254 -17.830050 3.895835 11.859433 83.221941 -7.072856 6.636067 21.454558 -0.003104 -0.000017 7.065164 0.481651 -0.174503 4.116198 0.969062 -0.331964 3.798072 0.967189 -0.337818 -1.602736 -3.873592 -2.694454 -5.584720 5.028931 -5.080456 -92.132039 -83.561149 -90.171208 -7.287721 4.868859 -3.463346 -16.313193 -16.053769 1.101419 13.665599 2.250939 -9.003325 87.568967 86.017784 -91.105339 4.046358 -14.973438 7.543554 -22.097419 21.561311 -1.551745 13.489548 0.604215 -8.594901 
-6.691837 91.662216 257.765991 88.834636 6.717845 90.373648 -175.931302 -7.714304 170.542201 -17.353134 -2.460950 -3.841306 85.456841 1.639632 -5.767032 21.454551 0.003097 -0.000001 -177.865298 3.215305 174.897772 -17.849601 3.895830 11.865964 83.210323 -7.083511 6.602134 21.454562 -0.003099 -0.000016 7.075498 0.485046 -0.180190 4.136829 0.976063 -0.343155 3.818676 0.974119 -0.349027 -1.609966 -3.853334 -2.702971 -5.602146 5.039396 -5.086839 -91.997887 -83.561757 -90.306084 -7.322864 4.849935 -3.452762 -16.373280 -16.079440 1.103881 13.673332 2.209691 -9.062800 87.659706 86.011056 -91.015679 4.048449 -14.981289 7.501487 -22.070978 21.557112 -1.551749 13.458761 0.703794 -8.571353 
-6.721008 91.660393 257.703308 88.830961 6.717843 90.380007 -175.983471 -7.736706 170.511615 -17.377179 -2.443576 -3.813997 85.452121 1.617369 -5.781197 21.454555 0.003084 -0.000002 -177.917890 3.188984 174.907389 -17.874883 3.895836 11.866355 83.203309 -7.090051 6.570646 21.454557 -0.003097 -0.000017 7.084309 0.488661 -0.185768 4.154401 0.983531 -0.354086 3.836253 0.981506 -0.360018 -1.602103 -3.840688 -2.701095 -5.630861 5.051813 -5.086978 -91.956947 -83.538500 -90.349476 -7.364723 4.816920 -3.429747 -16.438199 -16.111311 1.106412 13.688568 2.159515 -9.076320 87.694472 86.000613 -90.981808 4.045945 -14.979049 7.474263 -22.065770 21.578350 -1.551750 13.448561 0.746847 -8.537139 
-6.745842 91.656479 257.648285 88.823516 6.717838 90.367924 -176.019412 -7.755896 170.470990 -17.389088 -2.425425 -3.793553 85.459539 1.600748 -5.793862 21.454553 0.003096 0.000000 -177.971739 3.163302 174.905667 -17.908133 3.895830 11.864230 83.202537 -7.092829 6.543109 21.454555 -0.003113 -0.000018 7.093283 0.493308 -0.189302 4.172309 0.992981 -0.360893 3.854168 0.990930 -0.366879 -1.611991 -3.839948 -2.694902 -5.647474 5.066742 -5.086455 -92.004595 -83.495818 -90.305647 -7.412043 4.777829 -3.414755 -16.509742 -16.156203 1.109214 13.701001 2.142449 -9.015271 87.614798 86.003010 -91.060990 4.029432 -14.975951 7.466811 -22.081020 21.616531 -1.551749 13.469477 0.733378 -8.546072 
-6.767525 91.652382 257.599213 88.815176 6.717838 90.348725 -176.049833 -7.771606 170.435172 -17.401519 -2.406764 -3.780949 85.469422 1.589533 -5.807429 21.454553 0.003090 -0.000000 -178.020766 3.141009 174.895299 -17.938515 3.895838 11.860717 83.201956 -7.093809 6.517273 21.454560 -0.003099 -0.000016 7.102621 0.498311 -0.191748 4.190944 1.003134 -0.366562 3.872800 1.001033 -0.372605 -1.641493 -3.854805 -2.689710 -5.649813 5.088582 -5.090153 -92.091044 -83.455787 -90.222339 -7.445249 4.742128 -3.425040 -16.587898 -16.198101 1.112559 13.688060 2.135143 -8.917794 87.401723 86.016950 -91.272030 4.006431 -14.980357 7.494741 -22.125049 21.642627 -1.551755 13.502032 0.761354 -8.622533 
-6.787653 91.649986 257.556793 88.809166 6.717841 90.326998 -176.082195 -7.783500 170.414668 -17.424338 -2.389722 -3.778602 85.471594 1.584432 -5.824389 21.454553 0.003091 -0.000001 -178.060450 3.123700 174.886611 -17.957868 3.895821 11.855170 83.201212 -7.094112 6.492368 21.454558 -0.003110 -0.000018 7.109961 0.502781 -0.194176 4.205609 1.010697 -0.370191 3.887475 1.008581 -0.376285 -1.645479 -3.876526 -2.688265 -5.669772 5.117434 -5.103623 -92.178225 -83.454619 -90.134701 -7.440546 4.723963 -3.394158 -16.656221 -16.266333 1.117592 13.654551 2.139263 -8.884848 87.211817 86.025119 -91.460748 4.004666 -14.993539 7.564790 -22.203540 21.647289 -1.551752 13.536830 0.831551 -8.768862 
-6.807516 91.647430 257.523010 88.799351 6.717838 90.311978 -176.119365 -7.799700 170.421744 -17.459603 -2.376568 -3.787801 85.479374 1.582948 -5.844772 21.454555 0.003080 -0.000001 -178.090052 3.102804 174.889630 -17.967677 3.895832 11.847373 83.200344 -7.093438 6.469834 21.454560 -0.003109 -0.000019 7.115417 0.505958 -0.197620 4.216463 1.018641 -0.376527 3.898324 1.016495 -0.382661 -1.642304 -3.911505 -2.685331 -5.694272 5.158602 -5.125831 -92.282392 -83.470751 -90.028594 -7.421144 4.718597 -3.359934 -16.713862 -16.335280 1.122371 13.615219 2.146272 -8.913075 87.021316 86.011104 -91.651747 4.025216 -15.012930 7.595813 -22.243816 21.666031 -1.551755 13.546722 0.841372 -8.882609 
-6.826769 91.645020 257.496185 88.786169 6.717832 90.297512 -176.156357 -7.820805 170.430555 -17.498736 -2.366515 -3.797288 85.489653 1.582736 -5.865345 21.454553 0.003091 0.000001 -178.114162 3.079300 174.900313 -17.971522 3.895828 11.835874 83.199538 -7.091502 6.448946 21.454558 -0.003106 -0.000016 7.120014 0.507084 -0.201462 4.225634 1.026090 -0.383830 3.907496 1.023895 -0.390027 -1.657401 -3.975025 -2.681793 -5.703267 5.227635 -5.157470 -92.395275 -83.482540 -89.914010 -7.414576 4.726303 -3.337081 -16.752900 -16.377817 1.124759 13.579937 2.129467 -9.014742 86.815044 86.000414 -91.858408 4.042808 -15.042781 7.633019 -22.274312 21.683532 -1.551756 13.528071 0.818872 -8.905703 
-6.843387 91.643318 257.475708 88.775575 6.717841 90.278531 -176.180877 -7.839403 170.422837 -17.526055 -2.359179 -3.800489 85.495424 1.583654 -5.882613 21.454553 0.003099 -0.000001 -178.132945 3.061092 174.907361 -17.973242 3.895835 11.823391 83.198862 -7.086472 6.430377 21.454558 -0.003095 -0.000014 7.124455 0.507253 -0.204577 4.234447 1.027989 -0.390582 3.916315 1.025761 -0.396778 -1.695667 -4.016175 -2.678554 -5.690646 5.281539 -5.179274 -92.457361 -83.480252 -89.851692 -7.429081 4.755144 -3.348948 -16.781949 -16.384143 1.126036 13.572817 2.083280 -9.033840 86.758463 85.999779 -91.914744 4.041443 -15.075699 7.663377 -22.296350 21.697003 -1.551743 13.512310 0.800551 -8.869118 
-6.856960 91.642380 257.461609 88.768424 6.717836 90.253997 -176.192885 -7.854799 170.406267 -17.539552 -2.358663 -3.801961 85.496374 1.585507 -5.895192 21.454557 0.003090 0.000002 -178.149242 3.048999 174.905039 -17.975265 3.895833 11.812388 83.198480 -7.081943 6.414994 21.454558 -0.003103 -0.000015 7.127315 0.506795 -0.206447 4.240178 1.024201 -0.396055 3.922038 1.021930 -0.402234 -1.736934 -4.028366 -2.676309 -5.668564 5.311205 -5.187111 -92.486021 -83.468170 -89.824043 -7.459649 4.801766 -3.410727 -16.819158 -16.388832 1.126829 13.584648 2.080914 -8.989246 86.902532 86.003351 -91.770688 4.025771 -15.106229 7.676384 -22.315060 21.705139 -1.551748 13.530110 0.800376 -8.799176 
-6.867289 91.642174 257.453613 88.761293 6.717836 90.220631 -176.193896 -7.868306 170.384752 -17.544511 -2.362313 -3.805964 85.496538 1.588169 -5.905986 21.454553 0.003085 -0.000000 -178.165799 3.039400 174.890545 -17.982988 3.895833 11.802480 83.198500 -7.077223 6.403902 21.454560 -0.003114 -0.000018 7.129190 0.505248 -0.207360 4.242135 1.017668 -0.398019 3.923977 1.015381 -0.404164 -1.781717 -4.022545 -2.673803 -5.638752 5.319055 -5.185542 -92.492782 -83.447966 -89.819016 -7.507803 4.857646 -3.493759 -16.854672 -16.392500 1.127304 13.576640 2.081196 -8.939660 87.138946 86.006247 -91.534855 4.007360 -15.139459 7.665584 -22.319586 21.713870 -1.551747 13.534010 0.806335 -8.718684 
